<svg xmlns="http://www.w3.org/2000/svg" viewBox="0 0 500 500" width="100%" height="100%">
  
  <circle cx="250" cy="220" r="150" fill="#F2CC8F" opacity="0.8"/>

  <path d="M250 230 C210 110, 250 60, 250 60 C250 60, 290 110, 250 230Z" fill="#52796F" />
  <path d="M240 240 C140 140, 110 100, 110 100 C110 100, 170 110, 240 240Z" fill="#81B29A" />
  <path d="M260 240 C360 140, 390 100, 390 100 C390 100, 330 110, 260 240Z" fill="#81B29A" />

  <path d="M185 310 C150 220, 200 190, 220 190 L280 190 C300 190, 350 220, 315 310 Z" fill="#E07A5F" />
  
  <ellipse cx="250" cy="190" rx="35" ry="12" fill="#D06A4F" />
  <ellipse cx="250" cy="190" rx="22" ry="6" fill="#2E1C15" opacity="0.15" />
  
  <ellipse cx="250" cy="310" rx="65" ry="15" fill="#E07A5F" />
  <path d="M185 310 C185 318, 214 325, 250 325 C286 325, 315 318, 315 310 Z" fill="#C05A3F" />

  <path d="M180 255 Q250 290 320 255" fill="none" stroke="#F4F1DE" stroke-width="5" stroke-linecap="round"/>
  <path d="M185 280 Q250 315 315 280" fill="none" stroke="#F4F1DE" stroke-width="5" stroke-linecap="round"/>
</svg>
